<svg width="269" height="71" viewBox="0 0 269 71" fill="none" xmlns="http://www.w3.org/2000/svg">
<path d="M81.1904 40.8153V23.4545H90.895V54H81.6279V48.3125H81.3097C80.6336 50.1818 79.4802 51.6667 77.8495 52.767C76.2321 53.8542 74.2766 54.3977 71.983 54.3977C69.9016 54.3977 68.072 53.9205 66.4944 52.9659C64.9167 52.0114 63.6904 50.679 62.8154 48.9688C61.9404 47.2453 61.4963 45.2301 61.483 42.9233V23.4545H71.2075V41.0142C71.2207 42.6714 71.6582 43.9773 72.52 44.9318C73.3817 45.8864 74.555 46.3636 76.0398 46.3636C77.0076 46.3636 77.876 46.1515 78.645 45.7273C79.4272 45.2898 80.0436 44.66 80.4944 43.8381C80.9584 43.0028 81.1904 41.9953 81.1904 40.8153ZM111.363 54.5767C108.168 54.5767 105.41 53.947 103.09 52.6875C100.783 51.4148 99.0069 49.6051 97.7607 47.2585C96.5278 44.8987 95.9113 42.0947 95.9113 38.8466C95.9113 35.6913 96.5344 32.9337 97.7806 30.5739C99.0268 28.2008 100.783 26.358 103.05 25.0455C105.318 23.7197 107.989 23.0568 111.065 23.0568C113.239 23.0568 115.228 23.3949 117.031 24.071C118.834 24.7472 120.391 25.7481 121.704 27.0739C123.016 28.3996 124.037 30.0369 124.766 31.9858C125.496 33.9214 125.86 36.142 125.86 38.6477V41.0739H99.3119V35.4261H116.812C116.799 34.392 116.553 33.4706 116.076 32.6619C115.599 31.8532 114.943 31.2235 114.107 30.7727C113.285 30.3087 112.337 30.0767 111.264 30.0767C110.176 30.0767 109.202 30.322 108.34 30.8125C107.479 31.2898 106.796 31.946 106.292 32.7812C105.788 33.6032 105.523 34.5379 105.497 35.5852V41.3324C105.497 42.5786 105.742 43.6723 106.232 44.6136C106.723 45.5417 107.419 46.2642 108.32 46.7812C109.222 47.2983 110.296 47.5568 111.542 47.5568C112.404 47.5568 113.186 47.4375 113.889 47.1989C114.591 46.9602 115.194 46.6089 115.698 46.1449C116.202 45.6809 116.58 45.1108 116.832 44.4347L125.761 44.6932C125.39 46.6951 124.574 48.4384 123.315 49.9233C122.068 51.3949 120.431 52.5417 118.403 53.3636C116.374 54.1723 114.028 54.5767 111.363 54.5767ZM157.494 32.7812L148.565 33.0199C148.473 32.3835 148.221 31.8201 147.81 31.3295C147.399 30.8258 146.862 30.4347 146.199 30.1562C145.549 29.8646 144.794 29.7188 143.932 29.7188C142.805 29.7188 141.844 29.9441 141.048 30.3949C140.266 30.8456 139.882 31.4555 139.895 32.2244C139.882 32.821 140.12 33.3381 140.611 33.7756C141.115 34.2131 142.01 34.5644 143.296 34.8295L149.182 35.9432C152.231 36.5265 154.498 37.4943 155.983 38.8466C157.481 40.1989 158.237 41.9886 158.25 44.2159C158.237 46.3106 157.614 48.1335 156.381 49.6847C155.161 51.2358 153.491 52.4422 151.369 53.304C149.248 54.1525 146.822 54.5767 144.091 54.5767C139.729 54.5767 136.289 53.6818 133.77 51.892C131.264 50.089 129.832 47.6761 129.474 44.6534L139.08 44.4148C139.292 45.5284 139.842 46.3769 140.73 46.9602C141.618 47.5436 142.752 47.8352 144.131 47.8352C145.377 47.8352 146.391 47.6032 147.173 47.1392C147.956 46.6752 148.353 46.0587 148.367 45.2898C148.353 44.6004 148.048 44.0502 147.452 43.6392C146.855 43.215 145.921 42.8835 144.648 42.6449L139.318 41.6307C136.256 41.0739 133.975 40.0464 132.477 38.5483C130.979 37.0369 130.237 35.1146 130.25 32.7812C130.237 30.7396 130.78 28.9962 131.881 27.5511C132.981 26.0928 134.546 24.9792 136.574 24.2102C138.602 23.4413 140.995 23.0568 143.753 23.0568C147.889 23.0568 151.151 23.9252 153.537 25.6619C155.923 27.3854 157.242 29.7585 157.494 32.7812ZM180.279 23.4545V30.6136H161.009V23.4545H180.279ZM165.046 16.1364H174.771V44.3949C174.771 44.9915 174.863 45.4754 175.049 45.8466C175.248 46.2045 175.533 46.4631 175.904 46.6222C176.275 46.768 176.72 46.8409 177.237 46.8409C177.608 46.8409 177.999 46.8078 178.41 46.7415C178.834 46.6619 179.152 46.5956 179.364 46.5426L180.836 53.5625C180.372 53.6951 179.716 53.8608 178.867 54.0597C178.032 54.2585 177.031 54.3845 175.864 54.4375C173.584 54.5436 171.629 54.2784 169.998 53.642C168.381 52.9924 167.141 51.9848 166.279 50.6193C165.431 49.2538 165.02 47.5369 165.046 45.4688V16.1364Z" fill="white"/>
<circle cx="33.2364" cy="35.5654" r="6.06246" transform="rotate(20.4929 33.2364 35.5654)" fill="white"/>
<path d="M42.0139 46.1266C39.4144 48.3097 36.0821 49.4226 32.6925 49.2398C29.3029 49.0569 26.1096 47.5919 23.7602 45.1419C21.4107 42.6918 20.0808 39.4399 20.0401 36.0456C19.9995 32.6513 21.2511 29.3686 23.5412 26.8629C25.8313 24.3573 28.9885 22.8162 32.3728 22.5522C35.757 22.2882 39.1151 23.3209 41.766 25.4411C44.417 27.5613 46.1626 30.6103 46.6488 33.9698C47.135 37.3294 46.3255 40.7481 44.3844 43.5329L40.9713 41.1538C42.3085 39.2354 42.8662 36.8802 42.5312 34.5658C42.1963 32.2513 40.9937 30.1509 39.1675 28.6903C37.3412 27.2297 35.0278 26.5182 32.6964 26.7001C30.3649 26.8819 28.1899 27.9436 26.6122 29.6698C25.0345 31.3959 24.1723 33.6574 24.2003 35.9958C24.2283 38.3342 25.1445 40.5744 26.7631 42.2623C28.3816 43.9501 30.5815 44.9594 32.9166 45.0853C35.2518 45.2113 37.5474 44.4446 39.3382 42.9407L42.0139 46.1266Z" fill="#FDE403"/>
<path d="M47.6294 53.0096C43.3088 56.6382 37.77 58.4881 32.136 58.1842C26.502 57.8802 21.1944 55.4452 17.2892 51.3728C13.3841 47.3005 11.1736 41.8955 11.1061 36.2537C11.0385 30.6119 13.1188 25.1555 16.9253 20.9907C20.7317 16.826 25.9795 14.2645 31.6046 13.8257C37.2297 13.3869 42.8112 15.1035 47.2175 18.6275C51.6238 22.1516 54.5251 27.2194 55.3333 32.8034C56.1415 38.3874 54.796 44.0698 51.5697 48.6985L45.8965 44.7442C48.1192 41.5554 49.0461 37.6408 48.4893 33.7939C47.9326 29.947 45.9338 26.4558 42.8983 24.0281C39.8628 21.6003 36.0176 20.4177 32.1424 20.72C28.2673 21.0223 24.652 22.7869 22.0297 25.6561C19.4074 28.5252 17.9743 32.2842 18.0208 36.1708C18.0674 40.0575 19.5902 43.7811 22.2805 46.5865C24.9708 49.392 28.6272 51.0695 32.5086 51.2789C36.3899 51.4883 40.2056 50.2139 43.1821 47.7141L47.6294 53.0096Z" fill="#FDE403"/>
<path d="M38.1557 40.3661L56.1142 50.5859L50.1195 57.2131L38.1557 40.3661Z" fill="#FDE403"/>
</svg>
